packets.packet.0.codec_type="audio"
packets.packet.0.stream_index=0
packets.packet.0.pts=0
packets.packet.0.pts_time="0.000000"
packets.packet.0.dts=0
packets.packet.0.dts_time="0.000000"
packets.packet.0.duration=4096
packets.packet.0.duration_time="0.092880"
packets.packet.0.size="16384"
packets.packet.0.pos="44"
packets.packet.0.flags="K__"
packets.packet.1.codec_type="audio"
packets.packet.1.stream_index=0
packets.packet.1.pts=4096
packets.packet.1.pts_time="0.092880"
packets.packet.1.dts=4096
packets.packet.1.dts_time="0.092880"
packets.packet.1.duration=4096
packets.packet.1.duration_time="0.092880"
packets.packet.1.size="16384"
packets.packet.1.pos="16428"
packets.packet.1.flags="K__"
packets.packet.2.codec_type="audio"
packets.packet.2.stream_index=0
packets.packet.2.pts=8192
packets.packet.2.pts_time="0.185760"
packets.packet.2.dts=8192
packets.packet.2.dts_time="0.185760"
packets.packet.2.duration=4096
packets.packet.2.duration_time="0.092880"
packets.packet.2.size="16384"
packets.packet.2.pos="32812"
packets.packet.2.flags="K__"
packets.packet.3.codec_type="audio"
packets.packet.3.stream_index=0
packets.packet.3.pts=12288
packets.packet.3.pts_time="0.278639"
packets.packet.3.dts=12288
packets.packet.3.dts_time="0.278639"
packets.packet.3.duration=4096
packets.packet.3.duration_time="0.092880"
packets.packet.3.size="16384"
packets.packet.3.pos="49196"
packets.packet.3.flags="K__"
packets.packet.4.codec_type="audio"
packets.packet.4.stream_index=0
packets.packet.4.pts=16384
packets.packet.4.pts_time="0.371519"
packets.packet.4.dts=16384
packets.packet.4.dts_time="0.371519"
packets.packet.4.duration=4096
packets.packet.4.duration_time="0.092880"
packets.packet.4.size="16384"
packets.packet.4.pos="65580"
packets.packet.4.flags="K__"
packets.packet.5.codec_type="audio"
packets.packet.5.stream_index=0
packets.packet.5.pts=20480
packets.packet.5.pts_time="0.464399"
packets.packet.5.dts=20480
packets.packet.5.dts_time="0.464399"
packets.packet.5.duration=4096
packets.packet.5.duration_time="0.092880"
packets.packet.5.size="16384"
packets.packet.5.pos="81964"
packets.packet.5.flags="K__"
packets.packet.6.codec_type="audio"
packets.packet.6.stream_index=0
packets.packet.6.pts=24576
packets.packet.6.pts_time="0.557279"
packets.packet.6.dts=24576
packets.packet.6.dts_time="0.557279"
packets.packet.6.duration=4096
packets.packet.6.duration_time="0.092880"
packets.packet.6.size="16384"
packets.packet.6.pos="98348"
packets.packet.6.flags="K__"
packets.packet.7.codec_type="audio"
packets.packet.7.stream_index=0
packets.packet.7.pts=28672
packets.packet.7.pts_time="0.650159"
packets.packet.7.dts=28672
packets.packet.7.dts_time="0.650159"
packets.packet.7.duration=4096
packets.packet.7.duration_time="0.092880"
packets.packet.7.size="16384"
packets.packet.7.pos="114732"
packets.packet.7.flags="K__"
packets.packet.8.codec_type="audio"
packets.packet.8.stream_index=0
packets.packet.8.pts=32768
packets.packet.8.pts_time="0.743039"
packets.packet.8.dts=32768
packets.packet.8.dts_time="0.743039"
packets.packet.8.duration=4096
packets.packet.8.duration_time="0.092880"
packets.packet.8.size="16384"
packets.packet.8.pos="131116"
packets.packet.8.flags="K__"
packets.packet.9.codec_type="audio"
packets.packet.9.stream_index=0
packets.packet.9.pts=36864
packets.packet.9.pts_time="0.835918"
packets.packet.9.dts=36864
packets.packet.9.dts_time="0.835918"
packets.packet.9.duration=4096
packets.packet.9.duration_time="0.092880"
packets.packet.9.size="16384"
packets.packet.9.pos="147500"
packets.packet.9.flags="K__"
packets.packet.10.codec_type="audio"
packets.packet.10.stream_index=0
packets.packet.10.pts=40960
packets.packet.10.pts_time="0.928798"
packets.packet.10.dts=40960
packets.packet.10.dts_time="0.928798"
packets.packet.10.duration=4096
packets.packet.10.duration_time="0.092880"
packets.packet.10.size="16384"
packets.packet.10.pos="163884"
packets.packet.10.flags="K__"
packets.packet.11.codec_type="audio"
packets.packet.11.stream_index=0
packets.packet.11.pts=45056
packets.packet.11.pts_time="1.021678"
packets.packet.11.dts=45056
packets.packet.11.dts_time="1.021678"
packets.packet.11.duration=4096
packets.packet.11.duration_time="0.092880"
packets.packet.11.size="16384"
packets.packet.11.pos="180268"
packets.packet.11.flags="K__"
packets.packet.12.codec_type="audio"
packets.packet.12.stream_index=0
packets.packet.12.pts=49152
packets.packet.12.pts_time="1.114558"
packets.packet.12.dts=49152
packets.packet.12.dts_time="1.114558"
packets.packet.12.duration=4096
packets.packet.12.duration_time="0.092880"
packets.packet.12.size="16384"
packets.packet.12.pos="196652"
packets.packet.12.flags="K__"
packets.packet.13.codec_type="audio"
packets.packet.13.stream_index=0
packets.packet.13.pts=53248
packets.packet.13.pts_time="1.207438"
packets.packet.13.dts=53248
packets.packet.13.dts_time="1.207438"
packets.packet.13.duration=4096
packets.packet.13.duration_time="0.092880"
packets.packet.13.size="16384"
packets.packet.13.pos="213036"
packets.packet.13.flags="K__"
packets.packet.14.codec_type="audio"
packets.packet.14.stream_index=0
packets.packet.14.pts=57344
packets.packet.14.pts_time="1.300317"
packets.packet.14.dts=57344
packets.packet.14.dts_time="1.300317"
packets.packet.14.duration=4096
packets.packet.14.duration_time="0.092880"
packets.packet.14.size="16384"
packets.packet.14.pos="229420"
packets.packet.14.flags="K__"
packets.packet.15.codec_type="audio"
packets.packet.15.stream_index=0
packets.packet.15.pts=61440
packets.packet.15.pts_time="1.393197"
packets.packet.15.dts=61440
packets.packet.15.dts_time="1.393197"
packets.packet.15.duration=4096
packets.packet.15.duration_time="0.092880"
packets.packet.15.size="16384"
packets.packet.15.pos="245804"
packets.packet.15.flags="K__"
packets.packet.16.codec_type="audio"
packets.packet.16.stream_index=0
packets.packet.16.pts=65536
packets.packet.16.pts_time="1.486077"
packets.packet.16.dts=65536
packets.packet.16.dts_time="1.486077"
packets.packet.16.duration=4096
packets.packet.16.duration_time="0.092880"
packets.packet.16.size="16384"
packets.packet.16.pos="262188"
packets.packet.16.flags="K__"
packets.packet.17.codec_type="audio"
packets.packet.17.stream_index=0
packets.packet.17.pts=69632
packets.packet.17.pts_time="1.578957"
packets.packet.17.dts=69632
packets.packet.17.dts_time="1.578957"
packets.packet.17.duration=4096
packets.packet.17.duration_time="0.092880"
packets.packet.17.size="16384"
packets.packet.17.pos="278572"
packets.packet.17.flags="K__"
packets.packet.18.codec_type="audio"
packets.packet.18.stream_index=0
packets.packet.18.pts=73728
packets.packet.18.pts_time="1.671837"
packets.packet.18.dts=73728
packets.packet.18.dts_time="1.671837"
packets.packet.18.duration=4096
packets.packet.18.duration_time="0.092880"
packets.packet.18.size="16384"
packets.packet.18.pos="294956"
packets.packet.18.flags="K__"
packets.packet.19.codec_type="audio"
packets.packet.19.stream_index=0
packets.packet.19.pts=77824
packets.packet.19.pts_time="1.764717"
packets.packet.19.dts=77824
packets.packet.19.dts_time="1.764717"
packets.packet.19.duration=4096
packets.packet.19.duration_time="0.092880"
packets.packet.19.size="16384"
packets.packet.19.pos="311340"
packets.packet.19.flags="K__"
packets.packet.20.codec_type="audio"
packets.packet.20.stream_index=0
packets.packet.20.pts=81920
packets.packet.20.pts_time="1.857596"
packets.packet.20.dts=81920
packets.packet.20.dts_time="1.857596"
packets.packet.20.duration=4096
packets.packet.20.duration_time="0.092880"
packets.packet.20.size="16384"
packets.packet.20.pos="327724"
packets.packet.20.flags="K__"
packets.packet.21.codec_type="audio"
packets.packet.21.stream_index=0
packets.packet.21.pts=86016
packets.packet.21.pts_time="1.950476"
packets.packet.21.dts=86016
packets.packet.21.dts_time="1.950476"
packets.packet.21.duration=4096
packets.packet.21.duration_time="0.092880"
packets.packet.21.size="16384"
packets.packet.21.pos="344108"
packets.packet.21.flags="K__"
packets.packet.22.codec_type="audio"
packets.packet.22.stream_index=0
packets.packet.22.pts=90112
packets.packet.22.pts_time="2.043356"
packets.packet.22.dts=90112
packets.packet.22.dts_time="2.043356"
packets.packet.22.duration=4096
packets.packet.22.duration_time="0.092880"
packets.packet.22.size="16384"
packets.packet.22.pos="360492"
packets.packet.22.flags="K__"
packets.packet.23.codec_type="audio"
packets.packet.23.stream_index=0
packets.packet.23.pts=94208
packets.packet.23.pts_time="2.136236"
packets.packet.23.dts=94208
packets.packet.23.dts_time="2.136236"
packets.packet.23.duration=4096
packets.packet.23.duration_time="0.092880"
packets.packet.23.size="16384"
packets.packet.23.pos="376876"
packets.packet.23.flags="K__"
packets.packet.24.codec_type="audio"
packets.packet.24.stream_index=0
packets.packet.24.pts=98304
packets.packet.24.pts_time="2.229116"
packets.packet.24.dts=98304
packets.packet.24.dts_time="2.229116"
packets.packet.24.duration=4096
packets.packet.24.duration_time="0.092880"
packets.packet.24.size="16384"
packets.packet.24.pos="393260"
packets.packet.24.flags="K__"
packets.packet.25.codec_type="audio"
packets.packet.25.stream_index=0
packets.packet.25.pts=102400
packets.packet.25.pts_time="2.321995"
packets.packet.25.dts=102400
packets.packet.25.dts_time="2.321995"
packets.packet.25.duration=4096
packets.packet.25.duration_time="0.092880"
packets.packet.25.size="16384"
packets.packet.25.pos="409644"
packets.packet.25.flags="K__"
packets.packet.26.codec_type="audio"
packets.packet.26.stream_index=0
packets.packet.26.pts=106496
packets.packet.26.pts_time="2.414875"
packets.packet.26.dts=106496
packets.packet.26.dts_time="2.414875"
packets.packet.26.duration=4096
packets.packet.26.duration_time="0.092880"
packets.packet.26.size="16384"
packets.packet.26.pos="426028"
packets.packet.26.flags="K__"
packets.packet.27.codec_type="audio"
packets.packet.27.stream_index=0
packets.packet.27.pts=110592
packets.packet.27.pts_time="2.507755"
packets.packet.27.dts=110592
packets.packet.27.dts_time="2.507755"
packets.packet.27.duration=4096
packets.packet.27.duration_time="0.092880"
packets.packet.27.size="16384"
packets.packet.27.pos="442412"
packets.packet.27.flags="K__"
packets.packet.28.codec_type="audio"
packets.packet.28.stream_index=0
packets.packet.28.pts=114688
packets.packet.28.pts_time="2.600635"
packets.packet.28.dts=114688
packets.packet.28.dts_time="2.600635"
packets.packet.28.duration=4096
packets.packet.28.duration_time="0.092880"
packets.packet.28.size="16384"
packets.packet.28.pos="458796"
packets.packet.28.flags="K__"
packets.packet.29.codec_type="audio"
packets.packet.29.stream_index=0
packets.packet.29.pts=118784
packets.packet.29.pts_time="2.693515"
packets.packet.29.dts=118784
packets.packet.29.dts_time="2.693515"
packets.packet.29.duration=4096
packets.packet.29.duration_time="0.092880"
packets.packet.29.size="16384"
packets.packet.29.pos="475180"
packets.packet.29.flags="K__"
packets.packet.30.codec_type="audio"
packets.packet.30.stream_index=0
packets.packet.30.pts=122880
packets.packet.30.pts_time="2.786395"
packets.packet.30.dts=122880
packets.packet.30.dts_time="2.786395"
packets.packet.30.duration=4096
packets.packet.30.duration_time="0.092880"
packets.packet.30.size="16384"
packets.packet.30.pos="491564"
packets.packet.30.flags="K__"
packets.packet.31.codec_type="audio"
packets.packet.31.stream_index=0
packets.packet.31.pts=126976
packets.packet.31.pts_time="2.879274"
packets.packet.31.dts=126976
packets.packet.31.dts_time="2.879274"
packets.packet.31.duration=4096
packets.packet.31.duration_time="0.092880"
packets.packet.31.size="16384"
packets.packet.31.pos="507948"
packets.packet.31.flags="K__"
packets.packet.32.codec_type="audio"
packets.packet.32.stream_index=0
packets.packet.32.pts=131072
packets.packet.32.pts_time="2.972154"
packets.packet.32.dts=131072
packets.packet.32.dts_time="2.972154"
packets.packet.32.duration=4096
packets.packet.32.duration_time="0.092880"
packets.packet.32.size="16384"
packets.packet.32.pos="524332"
packets.packet.32.flags="K__"
packets.packet.33.codec_type="audio"
packets.packet.33.stream_index=0
packets.packet.33.pts=135168
packets.packet.33.pts_time="3.065034"
packets.packet.33.dts=135168
packets.packet.33.dts_time="3.065034"
packets.packet.33.duration=4096
packets.packet.33.duration_time="0.092880"
packets.packet.33.size="16384"
packets.packet.33.pos="540716"
packets.packet.33.flags="K__"
packets.packet.34.codec_type="audio"
packets.packet.34.stream_index=0
packets.packet.34.pts=139264
packets.packet.34.pts_time="3.157914"
packets.packet.34.dts=139264
packets.packet.34.dts_time="3.157914"
packets.packet.34.duration=4096
packets.packet.34.duration_time="0.092880"
packets.packet.34.size="16384"
packets.packet.34.pos="557100"
packets.packet.34.flags="K__"
packets.packet.35.codec_type="audio"
packets.packet.35.stream_index=0
packets.packet.35.pts=143360
packets.packet.35.pts_time="3.250794"
packets.packet.35.dts=143360
packets.packet.35.dts_time="3.250794"
packets.packet.35.duration=4096
packets.packet.35.duration_time="0.092880"
packets.packet.35.size="16384"
packets.packet.35.pos="573484"
packets.packet.35.flags="K__"
packets.packet.36.codec_type="audio"
packets.packet.36.stream_index=0
packets.packet.36.pts=147456
packets.packet.36.pts_time="3.343673"
packets.packet.36.dts=147456
packets.packet.36.dts_time="3.343673"
packets.packet.36.duration=4096
packets.packet.36.duration_time="0.092880"
packets.packet.36.size="16384"
packets.packet.36.pos="589868"
packets.packet.36.flags="K__"
packets.packet.37.codec_type="audio"
packets.packet.37.stream_index=0
packets.packet.37.pts=151552
packets.packet.37.pts_time="3.436553"
packets.packet.37.dts=151552
packets.packet.37.dts_time="3.436553"
packets.packet.37.duration=4096
packets.packet.37.duration_time="0.092880"
packets.packet.37.size="16384"
packets.packet.37.pos="606252"
packets.packet.37.flags="K__"
packets.packet.38.codec_type="audio"
packets.packet.38.stream_index=0
packets.packet.38.pts=155648
packets.packet.38.pts_time="3.529433"
packets.packet.38.dts=155648
packets.packet.38.dts_time="3.529433"
packets.packet.38.duration=4096
packets.packet.38.duration_time="0.092880"
packets.packet.38.size="16384"
packets.packet.38.pos="622636"
packets.packet.38.flags="K__"
packets.packet.39.codec_type="audio"
packets.packet.39.stream_index=0
packets.packet.39.pts=159744
packets.packet.39.pts_time="3.622313"
packets.packet.39.dts=159744
packets.packet.39.dts_time="3.622313"
packets.packet.39.duration=4096
packets.packet.39.duration_time="0.092880"
packets.packet.39.size="16384"
packets.packet.39.pos="639020"
packets.packet.39.flags="K__"
packets.packet.40.codec_type="audio"
packets.packet.40.stream_index=0
packets.packet.40.pts=163840
packets.packet.40.pts_time="3.715193"
packets.packet.40.dts=163840
packets.packet.40.dts_time="3.715193"
packets.packet.40.duration=4096
packets.packet.40.duration_time="0.092880"
packets.packet.40.size="16384"
packets.packet.40.pos="655404"
packets.packet.40.flags="K__"
packets.packet.41.codec_type="audio"
packets.packet.41.stream_index=0
packets.packet.41.pts=167936
packets.packet.41.pts_time="3.808073"
packets.packet.41.dts=167936
packets.packet.41.dts_time="3.808073"
packets.packet.41.duration=4096
packets.packet.41.duration_time="0.092880"
packets.packet.41.size="16384"
packets.packet.41.pos="671788"
packets.packet.41.flags="K__"
packets.packet.42.codec_type="audio"
packets.packet.42.stream_index=0
packets.packet.42.pts=172032
packets.packet.42.pts_time="3.900952"
packets.packet.42.dts=172032
packets.packet.42.dts_time="3.900952"
packets.packet.42.duration=4096
packets.packet.42.duration_time="0.092880"
packets.packet.42.size="16384"
packets.packet.42.pos="688172"
packets.packet.42.flags="K__"
packets.packet.43.codec_type="audio"
packets.packet.43.stream_index=0
packets.packet.43.pts=176128
packets.packet.43.pts_time="3.993832"
packets.packet.43.dts=176128
packets.packet.43.dts_time="3.993832"
packets.packet.43.duration=4096
packets.packet.43.duration_time="0.092880"
packets.packet.43.size="16384"
packets.packet.43.pos="704556"
packets.packet.43.flags="K__"
packets.packet.44.codec_type="audio"
packets.packet.44.stream_index=0
packets.packet.44.pts=180224
packets.packet.44.pts_time="4.086712"
packets.packet.44.dts=180224
packets.packet.44.dts_time="4.086712"
packets.packet.44.duration=4096
packets.packet.44.duration_time="0.092880"
packets.packet.44.size="16384"
packets.packet.44.pos="720940"
packets.packet.44.flags="K__"
packets.packet.45.codec_type="audio"
packets.packet.45.stream_index=0
packets.packet.45.pts=184320
packets.packet.45.pts_time="4.179592"
packets.packet.45.dts=184320
packets.packet.45.dts_time="4.179592"
packets.packet.45.duration=4096
packets.packet.45.duration_time="0.092880"
packets.packet.45.size="16384"
packets.packet.45.pos="737324"
packets.packet.45.flags="K__"
packets.packet.46.codec_type="audio"
packets.packet.46.stream_index=0
packets.packet.46.pts=188416
packets.packet.46.pts_time="4.272472"
packets.packet.46.dts=188416
packets.packet.46.dts_time="4.272472"
packets.packet.46.duration=4096
packets.packet.46.duration_time="0.092880"
packets.packet.46.size="16384"
packets.packet.46.pos="753708"
packets.packet.46.flags="K__"
packets.packet.47.codec_type="audio"
packets.packet.47.stream_index=0
packets.packet.47.pts=192512
packets.packet.47.pts_time="4.365351"
packets.packet.47.dts=192512
packets.packet.47.dts_time="4.365351"
packets.packet.47.duration=4096
packets.packet.47.duration_time="0.092880"
packets.packet.47.size="16384"
packets.packet.47.pos="770092"
packets.packet.47.flags="K__"
packets.packet.48.codec_type="audio"
packets.packet.48.stream_index=0
packets.packet.48.pts=196608
packets.packet.48.pts_time="4.458231"
packets.packet.48.dts=196608
packets.packet.48.dts_time="4.458231"
packets.packet.48.duration=4096
packets.packet.48.duration_time="0.092880"
packets.packet.48.size="16384"
packets.packet.48.pos="786476"
packets.packet.48.flags="K__"
packets.packet.49.codec_type="audio"
packets.packet.49.stream_index=0
packets.packet.49.pts=200704
packets.packet.49.pts_time="4.551111"
packets.packet.49.dts=200704
packets.packet.49.dts_time="4.551111"
packets.packet.49.duration=4096
packets.packet.49.duration_time="0.092880"
packets.packet.49.size="16384"
packets.packet.49.pos="802860"
packets.packet.49.flags="K__"
packets.packet.50.codec_type="audio"
packets.packet.50.stream_index=0
packets.packet.50.pts=204800
packets.packet.50.pts_time="4.643991"
packets.packet.50.dts=204800
packets.packet.50.dts_time="4.643991"
packets.packet.50.duration=4096
packets.packet.50.duration_time="0.092880"
packets.packet.50.size="16384"
packets.packet.50.pos="819244"
packets.packet.50.flags="K__"
packets.packet.51.codec_type="audio"
packets.packet.51.stream_index=0
packets.packet.51.pts=208896
packets.packet.51.pts_time="4.736871"
packets.packet.51.dts=208896
packets.packet.51.dts_time="4.736871"
packets.packet.51.duration=4096
packets.packet.51.duration_time="0.092880"
packets.packet.51.size="16384"
packets.packet.51.pos="835628"
packets.packet.51.flags="K__"
packets.packet.52.codec_type="audio"
packets.packet.52.stream_index=0
packets.packet.52.pts=212992
packets.packet.52.pts_time="4.829751"
packets.packet.52.dts=212992
packets.packet.52.dts_time="4.829751"
packets.packet.52.duration=4096
packets.packet.52.duration_time="0.092880"
packets.packet.52.size="16384"
packets.packet.52.pos="852012"
packets.packet.52.flags="K__"
packets.packet.53.codec_type="audio"
packets.packet.53.stream_index=0
packets.packet.53.pts=217088
packets.packet.53.pts_time="4.922630"
packets.packet.53.dts=217088
packets.packet.53.dts_time="4.922630"
packets.packet.53.duration=4096
packets.packet.53.duration_time="0.092880"
packets.packet.53.size="16384"
packets.packet.53.pos="868396"
packets.packet.53.flags="K__"
packets.packet.54.codec_type="audio"
packets.packet.54.stream_index=0
packets.packet.54.pts=221184
packets.packet.54.pts_time="5.015510"
packets.packet.54.dts=221184
packets.packet.54.dts_time="5.015510"
packets.packet.54.duration=4096
packets.packet.54.duration_time="0.092880"
packets.packet.54.size="16384"
packets.packet.54.pos="884780"
packets.packet.54.flags="K__"
packets.packet.55.codec_type="audio"
packets.packet.55.stream_index=0
packets.packet.55.pts=225280
packets.packet.55.pts_time="5.108390"
packets.packet.55.dts=225280
packets.packet.55.dts_time="5.108390"
packets.packet.55.duration=4096
packets.packet.55.duration_time="0.092880"
packets.packet.55.size="16384"
packets.packet.55.pos="901164"
packets.packet.55.flags="K__"
packets.packet.56.codec_type="audio"
packets.packet.56.stream_index=0
packets.packet.56.pts=229376
packets.packet.56.pts_time="5.201270"
packets.packet.56.dts=229376
packets.packet.56.dts_time="5.201270"
packets.packet.56.duration=4096
packets.packet.56.duration_time="0.092880"
packets.packet.56.size="16384"
packets.packet.56.pos="917548"
packets.packet.56.flags="K__"
packets.packet.57.codec_type="audio"
packets.packet.57.stream_index=0
packets.packet.57.pts=233472
packets.packet.57.pts_time="5.294150"
packets.packet.57.dts=233472
packets.packet.57.dts_time="5.294150"
packets.packet.57.duration=4096
packets.packet.57.duration_time="0.092880"
packets.packet.57.size="16384"
packets.packet.57.pos="933932"
packets.packet.57.flags="K__"
packets.packet.58.codec_type="audio"
packets.packet.58.stream_index=0
packets.packet.58.pts=237568
packets.packet.58.pts_time="5.387029"
packets.packet.58.dts=237568
packets.packet.58.dts_time="5.387029"
packets.packet.58.duration=4096
packets.packet.58.duration_time="0.092880"
packets.packet.58.size="16384"
packets.packet.58.pos="950316"
packets.packet.58.flags="K__"
packets.packet.59.codec_type="audio"
packets.packet.59.stream_index=0
packets.packet.59.pts=241664
packets.packet.59.pts_time="5.479909"
packets.packet.59.dts=241664
packets.packet.59.dts_time="5.479909"
packets.packet.59.duration=4096
packets.packet.59.duration_time="0.092880"
packets.packet.59.size="16384"
packets.packet.59.pos="966700"
packets.packet.59.flags="K__"
packets.packet.60.codec_type="audio"
packets.packet.60.stream_index=0
packets.packet.60.pts=245760
packets.packet.60.pts_time="5.572789"
packets.packet.60.dts=245760
packets.packet.60.dts_time="5.572789"
packets.packet.60.duration=4096
packets.packet.60.duration_time="0.092880"
packets.packet.60.size="16384"
packets.packet.60.pos="983084"
packets.packet.60.flags="K__"
packets.packet.61.codec_type="audio"
packets.packet.61.stream_index=0
packets.packet.61.pts=249856
packets.packet.61.pts_time="5.665669"
packets.packet.61.dts=249856
packets.packet.61.dts_time="5.665669"
packets.packet.61.duration=4096
packets.packet.61.duration_time="0.092880"
packets.packet.61.size="16384"
packets.packet.61.pos="999468"
packets.packet.61.flags="K__"
packets.packet.62.codec_type="audio"
packets.packet.62.stream_index=0
packets.packet.62.pts=253952
packets.packet.62.pts_time="5.758549"
packets.packet.62.dts=253952
packets.packet.62.dts_time="5.758549"
packets.packet.62.duration=4096
packets.packet.62.duration_time="0.092880"
packets.packet.62.size="16384"
packets.packet.62.pos="1015852"
packets.packet.62.flags="K__"
packets.packet.63.codec_type="audio"
packets.packet.63.stream_index=0
packets.packet.63.pts=258048
packets.packet.63.pts_time="5.851429"
packets.packet.63.dts=258048
packets.packet.63.dts_time="5.851429"
packets.packet.63.duration=4096
packets.packet.63.duration_time="0.092880"
packets.packet.63.size="16384"
packets.packet.63.pos="1032236"
packets.packet.63.flags="K__"
packets.packet.64.codec_type="audio"
packets.packet.64.stream_index=0
packets.packet.64.pts=262144
packets.packet.64.pts_time="5.944308"
packets.packet.64.dts=262144
packets.packet.64.dts_time="5.944308"
packets.packet.64.duration=4096
packets.packet.64.duration_time="0.092880"
packets.packet.64.size="16384"
packets.packet.64.pos="1048620"
packets.packet.64.flags="K__"
packets.packet.65.codec_type="audio"
packets.packet.65.stream_index=0
packets.packet.65.pts=266240
packets.packet.65.pts_time="6.037188"
packets.packet.65.dts=266240
packets.packet.65.dts_time="6.037188"
packets.packet.65.duration=4096
packets.packet.65.duration_time="0.092880"
packets.packet.65.size="16384"
packets.packet.65.pos="1065004"
packets.packet.65.flags="K__"
packets.packet.66.codec_type="audio"
packets.packet.66.stream_index=0
packets.packet.66.pts=270336
packets.packet.66.pts_time="6.130068"
packets.packet.66.dts=270336
packets.packet.66.dts_time="6.130068"
packets.packet.66.duration=4096
packets.packet.66.duration_time="0.092880"
packets.packet.66.size="16384"
packets.packet.66.pos="1081388"
packets.packet.66.flags="K__"
packets.packet.67.codec_type="audio"
packets.packet.67.stream_index=0
packets.packet.67.pts=274432
packets.packet.67.pts_time="6.222948"
packets.packet.67.dts=274432
packets.packet.67.dts_time="6.222948"
packets.packet.67.duration=4096
packets.packet.67.duration_time="0.092880"
packets.packet.67.size="16384"
packets.packet.67.pos="1097772"
packets.packet.67.flags="K__"
packets.packet.68.codec_type="audio"
packets.packet.68.stream_index=0
packets.packet.68.pts=278528
packets.packet.68.pts_time="6.315828"
packets.packet.68.dts=278528
packets.packet.68.dts_time="6.315828"
packets.packet.68.duration=4096
packets.packet.68.duration_time="0.092880"
packets.packet.68.size="16384"
packets.packet.68.pos="1114156"
packets.packet.68.flags="K__"
packets.packet.69.codec_type="audio"
packets.packet.69.stream_index=0
packets.packet.69.pts=282624
packets.packet.69.pts_time="6.408707"
packets.packet.69.dts=282624
packets.packet.69.dts_time="6.408707"
packets.packet.69.duration=4096
packets.packet.69.duration_time="0.092880"
packets.packet.69.size="16384"
packets.packet.69.pos="1130540"
packets.packet.69.flags="K__"
packets.packet.70.codec_type="audio"
packets.packet.70.stream_index=0
packets.packet.70.pts=286720
packets.packet.70.pts_time="6.501587"
packets.packet.70.dts=286720
packets.packet.70.dts_time="6.501587"
packets.packet.70.duration=4096
packets.packet.70.duration_time="0.092880"
packets.packet.70.size="16384"
packets.packet.70.pos="1146924"
packets.packet.70.flags="K__"
packets.packet.71.codec_type="audio"
packets.packet.71.stream_index=0
packets.packet.71.pts=290816
packets.packet.71.pts_time="6.594467"
packets.packet.71.dts=290816
packets.packet.71.dts_time="6.594467"
packets.packet.71.duration=4096
packets.packet.71.duration_time="0.092880"
packets.packet.71.size="16384"
packets.packet.71.pos="1163308"
packets.packet.71.flags="K__"
packets.packet.72.codec_type="audio"
packets.packet.72.stream_index=0
packets.packet.72.pts=294912
packets.packet.72.pts_time="6.687347"
packets.packet.72.dts=294912
packets.packet.72.dts_time="6.687347"
packets.packet.72.duration=4096
packets.packet.72.duration_time="0.092880"
packets.packet.72.size="16384"
packets.packet.72.pos="1179692"
packets.packet.72.flags="K__"
packets.packet.73.codec_type="audio"
packets.packet.73.stream_index=0
packets.packet.73.pts=299008
packets.packet.73.pts_time="6.780227"
packets.packet.73.dts=299008
packets.packet.73.dts_time="6.780227"
packets.packet.73.duration=4096
packets.packet.73.duration_time="0.092880"
packets.packet.73.size="16384"
packets.packet.73.pos="1196076"
packets.packet.73.flags="K__"
packets.packet.74.codec_type="audio"
packets.packet.74.stream_index=0
packets.packet.74.pts=303104
packets.packet.74.pts_time="6.873107"
packets.packet.74.dts=303104
packets.packet.74.dts_time="6.873107"
packets.packet.74.duration=4096
packets.packet.74.duration_time="0.092880"
packets.packet.74.size="16384"
packets.packet.74.pos="1212460"
packets.packet.74.flags="K__"
packets.packet.75.codec_type="audio"
packets.packet.75.stream_index=0
packets.packet.75.pts=307200
packets.packet.75.pts_time="6.965986"
packets.packet.75.dts=307200
packets.packet.75.dts_time="6.965986"
packets.packet.75.duration=4096
packets.packet.75.duration_time="0.092880"
packets.packet.75.size="16384"
packets.packet.75.pos="1228844"
packets.packet.75.flags="K__"
packets.packet.76.codec_type="audio"
packets.packet.76.stream_index=0
packets.packet.76.pts=311296
packets.packet.76.pts_time="7.058866"
packets.packet.76.dts=311296
packets.packet.76.dts_time="7.058866"
packets.packet.76.duration=1813
packets.packet.76.duration_time="0.041111"
packets.packet.76.size="7252"
packets.packet.76.pos="1245228"
packets.packet.76.flags="K__"
